PathFileType	4	(X/Y/Z)	s07c0203.trc
DataRate	CameraRate	NumFrames	NumMarkers	Units	OrigDataRate	OrigDataStartFrame	OrigNumFrames
200	200	4	48	mm	200	1750	2000
Frame#	Time	racr			lacr			c7			jug			rlel			rdr			llel			ldr			s2			lic			ric			lasi			rasi			rpsi			lpsi			rgt			lgt			rth1			rth2			rth3			rth4			rlfc			rmfc			rsh1			rsh2			rsh3			rsh4			rlmal			rcal			rtoe			rmt5			lth1			lth2			lth4			lth3			llfc			lmfc			lsh1			lsh2			lsh3			lsh4			llmal			lcal			ltoe			lmt5			SBIKE			LBIKE			RBIKE			
		X1	Y1	Z1	X2	Y2	Z2	X3	Y3	Z3	X4	Y4	Z4	X5	Y5	Z5	X6	Y6	Z6	X7	Y7	Z7	X8	Y8	Z8	X9	Y9	Z9	X10	Y10	Z10	X11	Y11	Z11	X12	Y12	Z12	X13	Y13	Z13	X14	Y14	Z14	X15	Y15	Z15	X16	Y16	Z16	X17	Y17	Z17	X18	Y18	Z18	X19	Y19	Z19	X20	Y20	Z20	X21	Y21	Z21	X22	Y22	Z22	X23	Y23	Z23	X24	Y24	Z24	X25	Y25	Z25	X26	Y26	Z26	X27	Y27	Z27	X28	Y28	Z28	X29	Y29	Z29	X30	Y30	Z30	X31	Y31	Z31	X32	Y32	Z32	X33	Y33	Z33	X34	Y34	Z34	X35	Y35	Z35	X36	Y36	Z36	X37	Y37	Z37	X38	Y38	Z38	X39	Y39	Z39	X40	Y40	Z40	X41	Y41	Z41	X42	Y42	Z42	X43	Y43	Z43	X44	Y44	Z44	X45	Y45	Z45	X46	Y46	Z46	X47	Y47	Z47	X48	Y48	Z48	
1750	8.7500	417.387053	1469.230573	-112.427953	385.327276	1462.187687	-381.157746	358.040188	1506.044014	-245.962373	336.491337	1362.776415	-242.697683	506.762335	1159.297501	28.379296	687.957396	938.607111	-67.622718	481.403334	1151.634548	-477.549787	703.902119	944.648785	-436.584090	-172.160574	1189.154549	-240.790969	-19.685410	1261.808819	-377.283000	-7.150254	1236.128049	-86.514166	21.265344	1188.065409	-355.722566	10.587267	1188.270885	-103.426096	-149.051170	1227.534830	-185.597855	-136.988449	1242.165446	-293.425813	-59.182726	1106.486625	-47.307386	-55.533900	1098.575952	-411.709173	89.464147	1046.469943	-40.597086	174.887993	1026.757806	-48.028387	240.574687	972.381150	-42.340038	189.057199	1055.799747	-66.105517	344.845879	882.255093	-77.795665	341.863612	871.383820	-183.459871	251.506507	778.348248	-57.823675	207.609843	703.784926	-76.718390	132.122140	659.141491	-76.404289	221.184734	694.965177	-114.556018	31.599234	570.241876	-80.517239	-41.045835	583.990679	-112.442951	154.802958	369.707150	-127.657049	76.578853	399.793266	-55.834881	18.894989	995.513842	-419.300522	92.907671	947.193235	-419.379547	119.686751	970.997943	-411.765313	133.262305	868.043407	-412.012571	243.842108	732.148206	-378.044149	233.128094	709.226284	-287.171005	220.343702	587.235109	-406.533993	231.375304	503.845985	-388.969891	200.903049	419.045860	-398.278615	232.030401	505.553082	-346.504475	175.579920	285.137706	-399.145822	111.328801	237.420975	-366.862859	398.579817	255.617428	-360.248008	297.815996	213.333640	-382.963426	-262.282054	961.906814	-237.270817	-82.952185	78.957502	-436.711930	-82.900786	79.013407	-39.135559	
1751	8.7550	417.235780	1469.283175	-111.048360	385.551811	1462.065257	-380.133859	358.000499	1505.812898	-244.844333	336.875429	1362.576402	-241.730118	506.254520	1158.849816	29.458735	687.639814	938.304435	-66.686064	481.642667	1151.376920	-476.544983	703.450497	943.879831	-435.903285	-171.224038	1187.896380	-241.344748	-18.175156	1259.887021	-377.940898	-6.967765	1234.956746	-87.011142	22.661443	1185.952001	-355.932554	11.128490	1187.547800	-103.543287	-149.169019	1226.965969	-185.833365	-135.875027	1240.683271	-294.165193	-58.142615	1106.090803	-47.166518	-54.487211	1096.294951	-411.671720	91.405034	1048.811607	-40.031104	177.258403	1031.330590	-47.717105	244.295404	978.517090	-42.646702	190.689019	1060.734064	-65.896925	350.397751	891.051944	-78.568617	347.231147	881.072819	-184.621444	258.052695	786.913589	-58.479837	214.160213	712.292326	-77.327096	138.668755	667.580644	-76.859930	227.663848	703.649208	-115.232990	38.331989	578.405452	-80.782170	-34.322805	592.234390	-112.578782	161.293780	377.814981	-127.803806	83.345827	407.838917	-56.038601	17.685907	991.849024	-419.746573	90.571238	941.825338	-419.808734	118.136219	965.169624	-412.419719	129.029487	861.664855	-412.525310	237.280669	724.438642	-378.096503	225.584160	701.936716	-287.351533	213.768546	579.777738	-406.562062	224.925924	496.482294	-388.937276	194.650012	411.589954	-398.285193	225.385738	498.280037	-346.409350	169.441176	277.503168	-399.067371	105.125148	230.218480	-366.686788	394.678773	248.892362	-362.807433	318.308965	213.008175	-427.090458	-262.345009	961.868513	-237.304813	-82.960418	78.947501	-436.723324	-82.887670	78.988134	-39.127511	
1752	8.7600	417.182568	1469.392717	-109.601481	385.846279	1461.949482	-379.226884	358.105534	1505.677837	-243.863295	337.206440	1362.422143	-240.838692	505.777590	1158.354426	30.417382	687.374157	938.091901	-65.608386	481.936400	1151.085190	-475.630912	703.051125	943.106783	-435.167451	-170.061451	1186.754438	-242.094114	-16.601878	1258.003111	-378.581874	-6.738934	1234.157446	-87.293102	24.127491	1183.914523	-356.080756	11.712147	1186.931084	-103.668318	-148.302220	1225.689161	-186.666859	-134.681460	1239.467392	-295.034025	-56.903732	1105.865196	-47.033020	-53.312815	1094.228859	-411.652284	93.328070	1051.161121	-39.621609	179.492581	1035.767352	-47.693023	247.835704	984.575372	-43.115816	192.184512	1065.640953	-65.696772	355.902384	899.891793	-79.609726	352.394844	890.189470	-185.846681	264.524443	795.175828	-59.271733	220.784505	720.569329	-78.094997	145.393797	675.629538	-77.389485	234.089312	712.116051	-116.115896	45.138335	586.172688	-81.106338	-27.864862	599.836031	-112.724954	168.281071	385.837649	-128.094159	90.272254	415.841491	-56.207009	16.591497	988.465716	-420.215785	88.342991	936.765224	-420.313580	116.433658	959.560477	-412.575446	124.882360	855.802792	-413.333063	230.871732	717.323102	-378.164357	218.415428	694.919851	-287.624663	207.133771	573.080098	-406.741710	218.414157	489.755179	-389.051679	188.267196	404.873639	-398.344432	218.582043	491.716545	-346.244468	162.944714	270.818699	-399.309824	98.567549	223.896014	-366.626913	388.298259	240.373924	-362.627691	311.704368	205.192587	-426.998654	-262.379268	961.841149	-237.362394	-82.952375	78.930406	-436.727683	-82.906455	78.991948	-39.142200	
1753	8.7650	417.131500	1469.567616	-108.162062	386.261776	1461.837789	-378.339207	358.359951	1505.520176	-242.822357	337.750906	1362.396433	-239.847759	505.243524	1157.871388	31.353713	687.184814	937.918355	-64.445787	482.301374	1150.770174	-474.701556	702.691284	942.312672	-434.333597	-168.939604	1185.936505	-242.926304	-14.930333	1256.479908	-379.125193	-6.555997	1233.333151	-87.559629	25.635458	1182.043333	-356.176756	12.335499	1186.617704	-103.769451	-147.098104	1224.437934	-187.764638	-133.506247	1238.353898	-295.770483	-55.657695	1105.759191	-46.828356	-52.156923	1092.339871	-411.597941	95.097004	1053.516500	-39.297807	181.582759	1040.222166	-47.756688	251.121202	990.500853	-43.774826	193.539537	1070.457104	-65.574608	361.531687	908.673963	-80.595472	357.248381	899.268422	-186.989746	270.797578	803.369661	-60.234728	227.415747	728.580448	-78.969187	152.076578	683.159440	-78.185076	240.633491	720.479223	-116.854229	51.993046	593.456548	-81.465349	-21.561642	606.854968	-112.704819	175.608924	393.660508	-128.909480	97.703710	423.614413	-56.480940	15.607441	985.562598	-420.805531	86.251844	932.265023	-420.826953	114.714939	954.483824	-412.587101	120.949643	850.511384	-414.266386	224.684004	710.922500	-378.259634	211.599119	688.477145	-287.983998	200.453180	567.073115	-407.009269	211.867816	483.787758	-389.311942	181.680893	398.899898	-398.598809	212.788483	485.736404	-346.501063	156.309681	262.940043	-397.108768	91.735399	218.345270	-366.586111	381.547482	232.273171	-362.569031	304.690101	197.608825	-426.848309	-262.379280	961.836919	-237.370380	-82.957524	78.918086	-436.720608	-82.882814	78.977381	-39.126276	
